<?xml version="1.0" standalone="no"?><!DOCTYPE svg PUBLIC "-//W3C//DTD SVG 1.1//EN" "http://www.w3.org/Graphics/SVG/1.1/DTD/svg11.dtd"><svg class="icon" width="200px" height="200.00px" viewBox="0 0 1024 1024" version="1.1" xmlns="http://www.w3.org/2000/svg"><path fill="#333333" d="M501.76 46.08a471.04 471.04 0 1 0 471.04 471.04 471.04 471.04 0 0 0-471.04-471.04z m0 890.88A419.84 419.84 0 1 1 921.6 517.12a420.2496 420.2496 0 0 1-419.84 419.84zM679.936 208.4864a25.8048 25.8048 0 0 0-28.8768 2.2528L372.736 437.0432a25.6 25.6 0 0 0-9.216 16.1792l-51.8144 347.136a25.6 25.6 0 0 0 40.96 23.7568l273.6128-219.3408a25.6 25.6 0 0 0 9.216-15.9744l56.9344-354.0992a25.6 25.6 0 0 0-12.4928-26.2144zM409.6 496.0256l157.4912 90.9312-194.56 156.0576z m182.272 46.08l-155.8528-89.9072 195.7888-159.3344z" /></svg>