<?xml version="1.0" standalone="no"?><!DOCTYPE svg PUBLIC "-//W3C//DTD SVG 1.1//EN" "http://www.w3.org/Graphics/SVG/1.1/DTD/svg11.dtd"><svg class="icon" width="200px" height="200.00px" viewBox="0 0 1024 1024" version="1.1" xmlns="http://www.w3.org/2000/svg"><path fill="#333333" d="M1010.0736 308.8384L523.6736 58.5728a24.7808 24.7808 0 0 0-23.3472 0L13.9264 308.8384a25.6 25.6 0 0 0 0 45.4656l115.3024 59.392v365.568c0 106.0864 168.1408 189.0304 382.7712 189.0304s382.7712-82.944 382.7712-189.0304V413.696l38.7072-20.48v182.272a25.6 25.6 0 1 0 51.2 0V367.4112l25.3952-13.1072a25.6 25.6 0 0 0 0-45.4656zM512 109.9776l430.08 221.5936L512 552.96 81.92 331.5712z m331.5712 669.2864c0 65.1264-136.192 137.8304-331.5712 137.8304S180.4288 844.3904 180.4288 779.264V440.1152l319.8976 163.84a25.1904 25.1904 0 0 0 23.3472 0l319.8976-163.84z" /></svg>